<?xml version="1.0" standalone="no"?>
<!DOCTYPE svg PUBLIC "-//W3C//DTD SVG 20010904//EN"
 "http://www.w3.org/TR/2001/REC-SVG-20010904/DTD/svg10.dtd">
<svg version="1.0" xmlns="http://www.w3.org/2000/svg"
 width="1195.000000pt" height="1280.000000pt" viewBox="0 0 1195.000000 1280.000000"
 preserveAspectRatio="xMidYMid meet">
<metadata>
Created by potrace 1.15, written by Peter Selinger 2001-2017
</metadata>
<g transform="translate(0.000000,1280.000000) scale(0.100000,-0.100000)"
fill="#000000" stroke="none">
<path d="M5710 12794 c-25 -2 -106 -8 -180 -14 -926 -75 -1862 -437 -2619
-1015 -326 -249 -637 -552 -887 -864 -1364 -1707 -1484 -4079 -297 -5895 47
-71 116 -172 154 -223 l70 -94 -102 -107 c-296 -312 -668 -811 -921 -1237
-304 -511 -585 -1112 -807 -1728 -105 -291 -115 -339 -115 -532 1 -139 4 -173
26 -256 74 -276 231 -498 458 -647 105 -70 202 -113 339 -151 l96 -26 5050 0
5050 0 96 26 c137 38 234 81 339 151 228 150 384 371 457 647 22 82 26 119 27
251 1 189 -7 227 -114 545 -415 1225 -990 2257 -1699 3050 -39 43 -71 83 -71
87 0 5 17 32 38 61 160 218 351 545 476 814 422 913 560 1927 396 2918 -164
998 -618 1916 -1308 2648 -846 896 -1951 1442 -3183 1572 -134 15 -667 28
-769 19z"/>
</g>
</svg>
